<svg xmlns="http://www.w3.org/2000/svg" width="51" height="50" fill="none" viewBox="0 0 51 50">
    <rect width="10" height="10" x="28" y="11.5" stroke="#FFD129" stroke-width="3" rx="5"/>
    <path fill="#E12040" d="M26.5 27h13v9c0 2.21-1.79 4-4 4h-9V27zM9.5 14c0-2.21 1.79-4 4-4h9v13h-13v-9z"/>
    <path fill="#CD0C2C" d="M9.5 27h13v13h-9c-2.21 0-4-1.79-4-4v-9z"/>
    <path fill="#FFA800" d="M28.404 11.904c.603-.604 1.32-1.083 2.109-1.41C31.3 10.169 32.146 10 33 10c.854 0 1.699.168 2.487.495.79.326 1.506.805 2.11 1.409.603.603 1.082 1.32 1.408 2.109.327.788.495 1.633.495 2.487 0 .854-.168 1.699-.495 2.487-.326.79-.805 1.506-1.409 2.11l-2.113-2.114c.326-.326.585-.713.761-1.14.176-.425.267-.882.267-1.343 0-.461-.09-.918-.267-1.344-.176-.426-.435-.813-.761-1.139-.326-.326-.713-.585-1.14-.761-.425-.177-.882-.267-1.343-.267-.461 0-.918.09-1.344.267-.426.176-.813.435-1.139.761l-2.113-2.113z"/>
    <path fill="url(#paint0_linear)" fill-rule="evenodd" d="M6.5 41c-.552 0-1 .448-1 1v1h-1c-.552 0-1 .448-1 1s.448 1 1 1h1v1c0 .552.448 1 1 1s1-.448 1-1v-1h1c.552 0 1-.448 1-1s-.448-1-1-1h-1v-1c0-.552-.448-1-1-1z" clip-rule="evenodd"/>
    <path fill="url(#paint1_linear)" fill-rule="evenodd" d="M7 5c-.46 0-.833.373-.833.833v.834h-.834c-.46 0-.833.373-.833.833 0 .46.373.833.833.833h.834v.834c0 .46.373.833.833.833.46 0 .833-.373.833-.833v-.834h.834c.46 0 .833-.373.833-.833 0-.46-.373-.833-.833-.833h-.834v-.834C7.833 5.373 7.46 5 7 5z" clip-rule="evenodd"/>
    <path fill="url(#paint2_linear)" fill-rule="evenodd" d="M44.5 27c-.368 0-.667.299-.667.667v.666h-.666c-.369 0-.667.299-.667.667 0 .368.298.667.667.667h.666v.666c0 .369.299.667.667.667.368 0 .667-.299.667-.667v-.666h.666c.369 0 .667-.299.667-.667 0-.368-.298-.667-.667-.667h-.666v-.666c0-.369-.299-.667-.667-.667z" clip-rule="evenodd"/>
    <defs>
        <linearGradient id="paint0_linear" x1="9.5" x2="4.327" y1="47" y2="40.356" gradientUnits="userSpaceOnUse">
            <stop offset=".539" stop-color="#FFA800"/>
            <stop offset=".54" stop-color="#FFD129"/>
        </linearGradient>
        <linearGradient id="paint1_linear" x1="9.5" x2="5.189" y1="10" y2="4.463" gradientUnits="userSpaceOnUse">
            <stop offset=".539" stop-color="#FFA800"/>
            <stop offset=".54" stop-color="#FFD129"/>
        </linearGradient>
        <linearGradient id="paint2_linear" x1="46.5" x2="43.051" y1="31" y2="26.571" gradientUnits="userSpaceOnUse">
            <stop offset=".539" stop-color="#FFA800"/>
            <stop offset=".54" stop-color="#FFD129"/>
        </linearGradient>
    </defs>
</svg>
